Coordinates
version=1
nRows=19
nColumns=33
inDegrees=yes

Units are S.I. units (second, meters, Newtons, ...)
Angles are in degrees.

endheader
time	ground_thorax_rot_x	ground_thorax_rot_y	ground_thorax_rot_z	ground_thorax_tx	ground_thorax_ty	ground_thorax_tz	clav_prot_r	clav_elev_r	scapula_abduction_r	scapula_elevation_r	scapula_upward_rot_r	scapula_winging_r	shoulder_elv_r	plane_of_elev_r	axial_rot_r	elbow_flexion_r	pro_sup_r	wrist_flex_r	wrist_dev_r	clav_prot_l	clav_elev_l	scapula_abduction_l	scapula_elevation_l	scapula_upward_rot_l	scapula_winging_l	shoulder_elv_l	plane_of_elev_l	axial_rot_l	elbow_flexion_l	pro_sup_l	wrist_flex_l	wrist_dev_l
      5.95000000	     90.00000000	    -90.00000000	    -90.00000000	    -78.02919860	    796.99373443	     -1.50644839	    -45.00000000	      8.07581712	    -36.14343568	     20.19929538	    -45.00000000	  -5507.26408009	  -1698.21716322	     24.84203890	   -147.85524709	   2529.36507250	   -341.63363869	     17.12167501	     10.23978957	     25.29241862	     38.69123197	    -45.00000000	    -45.00000000	     12.64598233	    753.53082362	  -3124.44212223	     12.08309515	   -173.29919548	    365.27944354	     18.07397164	     11.11721234	    -18.78246407
      5.96000000	     90.00000000	    -90.00000000	    -90.00000000	    -83.74779241	    797.17834854	     -2.24997045	    -45.00000000	      7.88089326	    -35.72018231	     20.12176857	    -45.00000000	  -5507.17733729	  -1697.82636118	     24.99055641	   -147.34546311	   2529.38462122	   -340.75074948	     17.19981412	     10.35564293	     25.08821365	     38.70405739	    -45.00000000	    -45.00000000	     12.95666707	    753.13821560	  -3124.25992343	     12.29100998	   -174.16449827	    365.38081576	     18.18498131	     11.27586705	    -18.87487877
      5.97000000	     90.00000000	    -90.00000000	    -90.00000000	    -89.49064436	    797.48781385	     -2.98465763	    -45.00000000	      7.85286913	    -35.28313521	     20.19877791	    -45.00000000	  -5507.04709400	  -1697.69315493	     25.15731472	   -145.92843592	   2529.47693039	   -339.74512817	     17.23416351	     10.17469262	     24.86756869	     38.33404854	    -45.00000000	    -45.00000000	     13.34464798	    752.69829185	  -3124.07519051	     12.45375729	   -175.39839151	    365.43480436	     18.42376308	     11.18724313	    -18.91529562
      5.98000000	     90.00000000	    -90.00000000	    -90.00000000	    -95.23582014	    797.92877625	     -3.70812167	    -45.00000000	      7.78963802	    -34.87089876	     20.08169069	    -45.00000000	  -5506.94177489	  -1697.30677800	     25.32529426	   -145.20937976	   2529.62796662	   -338.66240469	     17.34049705	     10.16979208	     24.56909098	     38.35182024	    -45.00000000	    -45.00000000	     13.76144017	    752.34149169	  -3124.01376594	     12.75238451	   -176.63775612	    365.57688448	     18.74484729	     11.23803830	    -19.02083518
      5.99000000	     90.00000000	    -90.00000000	    -90.00000000	   -100.96259529	    798.50443337	     -4.41678588	    -45.00000000	      7.42490275	    -34.49705992	     19.92144959	    -45.00000000	  -5506.86869894	  -1696.90032792	     25.48682026	   -144.62940042	   2529.75420591	   -337.53352066	     17.47764135	     10.22477828	     24.46268903	     38.14207113	    -45.00000000	    -45.00000000	     14.00797619	    751.81097014	  -3123.69094308	     12.81663876	   -177.33509734	    365.71227941	     19.05481431	     11.27883057	    -19.12844877
      6.00000000	     90.00000000	    -90.00000000	    -90.00000000	   -106.64661969	    799.21391435	     -5.10525919	    -45.00000000	      7.48111690	    -34.08922400	     19.81171893	    -45.00000000	  -5506.78009213	  -1696.54944988	     25.62760763	   -143.96145947	   2529.86982673	   -336.25325029	     17.55928512	     10.13900461	     24.14229678	     38.24124238	    -45.00000000	    -45.00000000	     14.44120448	    751.55569438	  -3123.64396244	     13.20100434	   -178.48231031	    365.82538057	     19.55031817	     11.44291274	    -19.27836889
      6.01000000	     90.00000000	    -90.00000000	    -90.00000000	   -112.27667457	    800.05584242	     -5.76866598	    -45.00000000	      7.25110318	    -33.73237112	     19.66752096	    -45.00000000	  -5506.72713119	  -1696.25755889	     25.81931601	   -143.00941108	   2530.03394581	   -334.98845589	     17.64908800	     10.00136728	     23.97005928	     37.95907030	    -45.00000000	    -45.00000000	     14.80801171	    751.07793981	  -3123.45977306	     13.31729688	   -179.29082067	    365.95965715	     20.12405337	     11.36412118	    -19.39370598
      6.02000000	     90.00000000	    -90.00000000	    -90.00000000	   -117.83174945	    801.02668612	     -6.40098565	    -45.00000000	      7.17988819	    -33.33687157	     19.57366573	    -45.00000000	  -5506.60003839	  -1695.97808345	     25.93871623	   -142.28139493	   2530.21451443	   -333.72528197	     17.74703530	      9.88810285	     23.69855556	     37.92224666	    -45.00000000	    -45.00000000	     15.09300903	    750.68192849	  -3123.25363707	     13.49088400	   -179.70493474	    366.06295942	     20.99326574	     11.48957934	    -19.59779198
      6.03000000	     90.00000000	    -90.00000000	    -90.00000000	   -123.27871952	    802.12042814	     -6.99594455	    -45.00000000	      6.80728550	    -32.90288546	     19.49233105	    -45.00000000	  -5506.56816821	  -1695.82277869	     26.14970147	   -141.45931557	   2530.49731964	   -332.55850096	     17.85506422	      9.71048301	     23.55842153	     37.65714428	    -45.00000000	    -45.00000000	     15.22761861	    750.16549493	  -3122.88511772	     13.47679501	   -179.99999979	    366.13664838	     21.98404725	     11.41904575	    -19.75439597
      6.04000000	     90.00000000	    -90.00000000	    -90.00000000	   -128.61656819	    803.33802139	     -7.55238049	    -45.00000000	      6.82204867	    -32.55518548	     19.30236560	    -45.00000000	  -5506.50335015	  -1695.47882310	     26.25837815	   -140.69820747	   2530.55946419	   -331.35476732	     17.89703277	      9.59924000	     23.32193317	     37.62438585	    -45.00000000	    -45.00000000	     15.53767563	    749.85465985	  -3122.67279871	     13.69194119	   -179.99999979	    366.30590914	     23.21808515	     11.53496750	    -20.02057330
      6.05000000	     90.00000000	    -90.00000000	    -90.00000000	   -133.81192336	    804.67398226	     -8.06791615	    -45.00000000	      6.69893289	    -32.18035376	     19.16879337	    -45.00000000	  -5506.47535478	  -1695.23844226	     26.37837436	   -139.98196088	   2530.62415460	   -330.17156572	     17.90872611	      9.43779127	     22.99478670	     37.55449862	    -45.00000000	    -45.00000000	     15.90671224	    749.54658080	  -3122.62481764	     13.91625184	   -179.99999979	    366.38032997	     24.77484752	     11.59686970	    -20.29723136
      6.06000000	     90.00000000	    -90.00000000	    -90.00000000	   -138.84374646	    806.12460284	     -8.54322921	    -45.00000000	      6.44375513	    -31.89941984	     19.04517114	    -45.00000000	  -5506.43519422	  -1695.01720316	     26.60863394	   -139.39313167	   2530.80373215	   -329.12944381	     17.97854743	      9.29962020	     22.87897519	     37.43699047	    -45.00000000	    -45.00000000	     16.08955039	    749.08711938	  -3122.32861759	     13.96130242	   -179.99999979	    366.50241462	     26.36271319	     11.51135843	    -20.54571458
      6.07000000	     90.00000000	    -90.00000000	    -90.00000000	   -143.69659361	    807.68567767	     -8.98154875	    -45.00000000	      6.37414547	    -31.58981485	     18.87534304	    -45.00000000	  -5506.34671684	  -1694.77546680	     26.68656573	   -138.80689202	   2530.96983611	   -328.17102075	     18.01670399	      9.14409129	     22.62081290	     37.35595581	    -45.00000000	    -45.00000000	     16.34476800	    748.73809960	  -3122.14239217	     14.11805114	   -179.99999979	    366.64076107	     28.09406296	     11.50278781	    -20.84677519
      6.08000000	     90.00000000	    -90.00000000	    -90.00000000	   -148.35771583	    809.35245023	     -9.38716166	    -45.00000000	      6.14375542	    -31.38294717	     18.69297069	    -45.00000000	  -5506.29668355	  -1694.57517395	     26.87840879	   -138.25912240	   2531.22898423	   -327.35749797	     18.08193457	      8.97633095	     22.40603710	     37.28026342	    -45.00000000	    -45.00000000	     16.55384342	    748.35561958	  -3121.86898789	     14.22392713	   -179.99999979	    366.73472175	     29.86594850	     11.45251955	    -21.13346643
      6.09000000	     90.00000000	    -90.00000000	    -90.00000000	   -152.80487078	    811.11370335	     -9.76436286	    -45.00000000	      6.08562216	    -31.13111250	     18.55147132	    -45.00000000	  -5506.21050309	  -1694.37345366	     26.95233326	   -137.78890327	   2531.34903733	   -326.65862931	     18.09482563	      8.82182360	     22.11658091	     37.31292627	    -45.00000000	    -45.00000000	     16.80605124	    748.01759427	  -3121.72709657	     14.41554437	   -179.99999979	    366.93060809	     31.69583340	     11.42498610	    -21.47012884
      6.10000000	     90.00000000	    -90.00000000	    -90.00000000	   -157.03338001	    812.96133291	    -10.11892276	    -45.00000000	      5.91378764	    -30.92019756	     18.39276071	    -45.00000000	  -5506.15916425	  -1694.19051713	     27.06751141	   -137.38908760	   2531.51196273	   -326.11056690	     18.12073459	      8.66309338	     21.92700821	     37.21810870	    -45.00000000	    -45.00000000	     17.00190056	    747.63039454	  -3121.51584542	     14.55326583	   -179.99999979	    367.12017349	     33.45447263	     11.32778945	    -21.76750964
      6.11000000	     90.00000000	    -90.00000000	    -90.00000000	   -161.03518198	    814.88324796	    -10.45626038	    -45.00000000	      5.35952034	    -30.69732406	     18.06346843	    -45.00000000	  -5506.35003553	  -1693.97088509	     27.32649016	   -136.98145717	   2531.79947580	   -325.73946625	     18.23250923	      8.49901520	     21.70567629	     37.29356824	    -45.00000000	    -45.00000000	     16.85276330	    747.06184345	  -3120.92903579	     14.40799140	   -179.99999979	    367.16397923	     34.99952314	     11.44179646	    -22.12686188
      6.12000000	     90.00000000	    -90.00000000	    -90.00000000	   -164.80340994	    816.86457634	    -10.78133687	    -45.00000000	      5.34056167	    -30.52177381	     17.81962113	    -45.00000000	  -5506.27997200	  -1693.71237014	     27.25645477	   -136.65879141	   2531.84080270	   -325.46798374	     18.20573314	      8.36739262	     21.58850837	     37.13706052	    -45.00000000	    -45.00000000	     17.05459748	    746.73940742	  -3120.71930993	     14.57427638	   -179.99999979	    367.26559065	     36.34492828	     11.34338211	    -22.34737833
      6.13000000	     90.00000000	    -90.00000000	    -90.00000000	   -168.33381473	    818.88926231	    -11.09818261	    -45.00000000	      5.19738772	    -30.35996505	     17.64948241	    -45.00000000	  -5506.28303168	  -1693.57277819	     27.34007643	   -136.44407038	   2531.96454219	   -325.29221723	     18.22722745	      8.22903796	     21.30989437	     37.26702214	    -45.00000000	    -45.00000000	     17.54788195	    746.34681602	  -3120.88131922	     14.66462088	   -179.99999979	    367.31849692	     37.62821608	     11.38491872	    -22.63402352
